<svg width="1832" height="512" viewBox="0 0 1832 512" fill="none" xmlns="http://www.w3.org/2000/svg">
<path d="M1756.82 326.128V200.997H1788.1V215.125H1792.64C1794.49 210.079 1797.52 206.379 1801.73 204.024C1806.1 201.67 1811.14 200.492 1816.86 200.492H1832V228.748H1816.36C1808.29 228.748 1801.64 230.934 1796.43 235.307C1791.21 239.512 1788.61 246.071 1788.61 254.985V326.128H1756.82Z" fill="#1F2937"/>
<path d="M1663.19 329.66C1650.74 329.66 1639.73 327.053 1630.14 321.84C1620.72 316.458 1613.32 308.973 1607.94 299.387C1602.72 289.632 1600.12 278.195 1600.12 265.077V262.049C1600.12 248.931 1602.72 237.578 1607.94 227.991C1613.15 218.237 1620.47 210.752 1629.89 205.539C1639.3 200.157 1650.24 197.466 1662.68 197.466C1674.96 197.466 1685.64 200.241 1694.72 205.791C1703.8 211.173 1710.87 218.741 1715.91 228.496C1720.96 238.083 1723.48 249.267 1723.48 262.049V272.897H1632.41C1632.75 281.475 1635.94 288.455 1642 293.837C1648.05 299.218 1655.45 301.909 1664.2 301.909C1673.11 301.909 1679.67 299.975 1683.87 296.107C1688.08 292.239 1691.27 287.95 1693.46 283.241L1719.45 296.864C1717.09 301.237 1713.64 306.03 1709.1 311.244C1704.73 316.289 1698.84 320.662 1691.44 324.362C1684.04 327.894 1674.62 329.66 1663.19 329.66ZM1632.66 249.183H1691.19C1690.52 241.951 1687.57 236.149 1682.36 231.776C1677.31 227.403 1670.67 225.216 1662.43 225.216C1653.85 225.216 1647.04 227.403 1642 231.776C1636.95 236.149 1633.84 241.951 1632.66 249.183Z" fill="#1F2937"/>
<path d="M1459.29 376.584V348.833H1527.41C1532.12 348.833 1534.47 346.31 1534.47 341.265V309.73H1529.93C1528.59 312.589 1526.48 315.448 1523.62 318.307C1520.76 321.167 1516.9 323.521 1512.02 325.371C1507.14 327.221 1500.92 328.146 1493.35 328.146C1483.6 328.146 1475.02 325.96 1467.62 321.587C1460.39 317.046 1454.75 310.823 1450.71 302.918C1446.68 295.014 1444.66 285.931 1444.66 275.672V200.997H1476.45V273.149C1476.45 282.568 1478.72 289.632 1483.26 294.341C1487.97 299.05 1494.61 301.405 1503.19 301.405C1512.94 301.405 1520.51 298.209 1525.89 291.818C1531.28 285.259 1533.97 276.177 1533.97 264.572V200.997H1565.75V348.329C1565.75 356.906 1563.23 363.718 1558.19 368.763C1553.14 373.977 1546.41 376.584 1538 376.584H1459.29Z" fill="#1F2937"/>
<path d="M1337.07 329.66C1328.16 329.66 1320.17 328.147 1313.11 325.119C1306.04 321.924 1300.41 317.383 1296.2 311.496C1292.17 305.441 1290.15 298.125 1290.15 289.548C1290.15 280.97 1292.17 273.822 1296.2 268.104C1300.41 262.217 1306.13 257.845 1313.36 254.985C1320.76 251.958 1329.17 250.444 1338.59 250.444H1372.9V243.381C1372.9 237.494 1371.05 232.701 1367.35 229.001C1363.65 225.132 1357.76 223.198 1349.69 223.198C1341.78 223.198 1335.9 225.048 1332.03 228.748C1328.16 232.28 1325.64 236.905 1324.46 242.624L1295.2 232.785C1297.21 226.394 1300.41 220.591 1304.78 215.377C1309.32 209.995 1315.29 205.707 1322.69 202.511C1330.26 199.147 1339.43 197.466 1350.19 197.466C1366.67 197.466 1379.71 201.586 1389.3 209.827C1398.88 218.068 1403.68 230.01 1403.68 245.651V292.323C1403.68 297.368 1406.03 299.891 1410.74 299.891H1420.83V326.128H1399.64C1393.42 326.128 1388.29 324.615 1384.25 321.587C1380.21 318.56 1378.2 314.523 1378.2 309.478V309.226H1373.4C1372.73 311.244 1371.22 313.935 1368.86 317.299C1366.51 320.494 1362.81 323.353 1357.76 325.876C1352.71 328.399 1345.82 329.66 1337.07 329.66ZM1342.62 303.928C1351.54 303.928 1358.77 301.489 1364.32 296.612C1370.04 291.566 1372.9 284.923 1372.9 276.681V274.159H1340.86C1334.97 274.159 1330.35 275.42 1326.98 277.943C1323.62 280.466 1321.94 283.998 1321.94 288.539C1321.94 293.08 1323.7 296.78 1327.23 299.639C1330.77 302.498 1335.9 303.928 1342.62 303.928Z" fill="#1F2937"/>
<path d="M1155.43 326.128V149.532H1188.74V295.854H1269.46V326.128H1155.43Z" fill="#1F2937"/>
<path d="M990.52 376.584V200.998H1021.8V216.134H1026.34C1029.2 211.257 1033.66 206.968 1039.71 203.268C1045.77 199.4 1054.43 197.466 1065.7 197.466C1075.79 197.466 1085.13 199.988 1093.7 205.034C1102.28 209.911 1109.18 217.143 1114.39 226.73C1119.6 236.317 1122.21 247.922 1122.21 261.545V265.581C1122.21 279.204 1119.6 290.809 1114.39 300.396C1109.18 309.982 1102.28 317.299 1093.7 322.344C1085.13 327.222 1075.79 329.66 1065.7 329.66C1058.13 329.66 1051.74 328.735 1046.53 326.885C1041.48 325.203 1037.36 323.017 1034.16 320.326C1031.14 317.467 1028.7 314.608 1026.85 311.748H1022.31V376.584H990.52ZM1056.11 301.909C1066.04 301.909 1074.19 298.798 1080.58 292.575C1087.14 286.184 1090.42 276.934 1090.42 264.824V262.302C1090.42 250.192 1087.14 241.026 1080.58 234.803C1074.02 228.412 1065.87 225.216 1056.11 225.216C1046.36 225.216 1038.2 228.412 1031.64 234.803C1025.08 241.026 1021.8 250.192 1021.8 262.302V264.824C1021.8 276.934 1025.08 286.184 1031.64 292.575C1038.2 298.798 1046.36 301.909 1056.11 301.909Z" fill="#1F2937"/>
<path d="M878.476 329.66C869.562 329.66 861.574 328.147 854.51 325.119C847.446 321.924 841.812 317.383 837.607 311.496C833.571 305.441 831.552 298.125 831.552 289.548C831.552 280.97 833.571 273.822 837.607 268.104C841.812 262.217 847.53 257.845 854.762 254.985C862.162 251.958 870.572 250.444 879.99 250.444H914.3V243.381C914.3 237.494 912.45 232.701 908.75 229.001C905.05 225.132 899.163 223.198 891.09 223.198C883.186 223.198 877.299 225.048 873.431 228.748C869.562 232.28 867.04 236.905 865.862 242.624L836.598 232.785C838.616 226.394 841.812 220.591 846.184 215.377C850.726 209.995 856.696 205.707 864.096 202.511C871.665 199.147 880.831 197.466 891.595 197.466C908.077 197.466 921.112 201.586 930.698 209.827C940.285 218.068 945.078 230.01 945.078 245.651V292.323C945.078 297.368 947.433 299.891 952.142 299.891H962.233V326.128H941.042C934.819 326.128 929.689 324.615 925.653 321.587C921.616 318.56 919.598 314.523 919.598 309.478V309.226H914.805C914.132 311.244 912.618 313.935 910.264 317.299C907.909 320.494 904.209 323.353 899.163 325.876C894.118 328.399 887.222 329.66 878.476 329.66ZM884.026 303.928C892.94 303.928 900.172 301.489 905.723 296.612C911.441 291.566 914.3 284.923 914.3 276.681V274.159H882.261C876.374 274.159 871.749 275.42 868.385 277.943C865.021 280.466 863.34 283.998 863.34 288.539C863.34 293.08 865.105 296.78 868.637 299.639C872.169 302.498 877.299 303.928 884.026 303.928Z" fill="#1F2937"/>
<path d="M679.122 326.128V200.998H710.405V217.396H714.946C716.964 213.023 720.748 208.902 726.298 205.034C731.848 200.998 740.258 198.979 751.526 198.979C761.281 198.979 769.774 201.25 777.007 205.791C784.407 210.164 790.125 216.303 794.162 224.207C798.198 231.944 800.216 241.026 800.216 251.454V326.128H768.429V253.976C768.429 244.558 766.074 237.494 761.365 232.785C756.824 228.076 750.265 225.721 741.687 225.721C731.932 225.721 724.364 229.001 718.982 235.56C713.6 241.951 710.909 250.949 710.909 262.554V326.128H679.122Z" fill="#1F2937"/>
<path d="M581.377 329.66C567.754 329.66 555.729 327.221 545.301 322.344C534.873 317.466 526.716 310.487 520.83 301.404C514.943 292.322 512 281.39 512 268.608V261.544H544.796V268.608C544.796 279.204 548.076 287.193 554.635 292.575C561.195 297.788 570.108 300.395 581.377 300.395C592.814 300.395 601.307 298.125 606.857 293.584C612.576 289.043 615.435 283.24 615.435 276.176C615.435 271.299 614.005 267.347 611.146 264.319C608.455 261.292 604.419 258.853 599.037 257.003C593.823 254.985 587.432 253.135 579.863 251.453L574.061 250.192C561.951 247.501 551.524 244.137 542.778 240.1C534.201 235.896 527.557 230.43 522.848 223.702C518.307 216.975 516.036 208.229 516.036 197.465C516.036 186.701 518.559 177.535 523.605 169.967C528.819 162.23 536.051 156.343 545.301 152.307C554.719 148.102 565.736 146 578.35 146C590.964 146 602.148 148.186 611.903 152.559C621.826 156.764 629.562 163.155 635.113 171.733C640.831 180.142 643.69 190.738 643.69 203.52V211.088H610.894V203.52C610.894 196.792 609.548 191.41 606.857 187.374C604.334 183.169 600.634 180.142 595.757 178.292C590.88 176.274 585.077 175.264 578.35 175.264C568.258 175.264 560.774 177.199 555.897 181.067C551.187 184.767 548.833 189.897 548.833 196.456C548.833 200.829 549.926 204.529 552.113 207.556C554.467 210.584 557.915 213.106 562.456 215.125C566.997 217.143 572.799 218.909 579.863 220.423L585.666 221.684C598.28 224.375 609.212 227.823 618.462 232.027C627.881 236.232 635.197 241.782 640.411 248.678C645.624 255.574 648.231 264.403 648.231 275.167C648.231 285.931 645.456 295.434 639.906 303.675C634.524 311.748 626.787 318.139 616.696 322.848C606.773 327.389 595 329.66 581.377 329.66Z" fill="#1F2937"/>
<path d="M176 128C176 101.49 197.49 80 224 80H416C442.508 80 464 101.49 464 128V320C464 346.51 442.508 368 416 368H224C197.49 368 176 346.51 176 320V128Z" fill="#387CEB"/>
<path d="M288 144H96C69.4903 144 48 165.49 48 192V384C48 410.51 69.4903 432 96 432H288C314.51 432 336 410.51 336 384V192C336 165.49 314.51 144 288 144Z" fill="#A683F5" fill-opacity="0.75"/>
<mask id="mask0_77_170" style="mask-type:luminance" maskUnits="userSpaceOnUse" x="168" y="144" width="168" height="232">
<path d="M168 144H336V376H216C189.49 376 168 354.51 168 328V144Z" fill="white"/>
</mask>
<g mask="url(#mask0_77_170)">
<path d="M336 396H216C178.445 396 148 365.555 148 328H188C188 343.464 200.536 356 216 356H336V396ZM216 396C178.445 396 148 365.555 148 328V144H188V328C188 343.464 200.536 356 216 356V396Z" fill="#0061FF" fill-opacity="0.75"/>
</g>
<mask id="mask1_77_170" style="mask-type:luminance" maskUnits="userSpaceOnUse" x="168" y="136" width="180" height="240">
<path d="M168 136H300C326.51 136 348 157.49 348 184V376H168V136Z" fill="white"/>
</mask>
<g mask="url(#mask1_77_170)">
<path d="M168 116H300C337.555 116 368 146.445 368 184H328C328 168.536 315.464 156 300 156H168V116ZM300 116C337.555 116 368 146.445 368 184V376H328V184C328 168.536 315.464 156 300 156V116Z" fill="#5F2FCB" fill-opacity="0.75"/>
</g>
</svg>
